<svg width="1819" height="683" viewBox="0 0 1819 683" fill="none" xmlns="http://www.w3.org/2000/svg">
<path fill-rule="evenodd" clip-rule="evenodd" d="M1592.46 0L1618.05 35.4207L1637.12 25.8521L1659.64 53.3422L1659.66 53.3708L1694.47 93.7659L1710.58 84.3866L1735.51 96.549L1743.08 74.2125L1782.02 120.796L1788.65 114.118L1793.2 119.843L1816.13 43.5483L1818.02 44.1189L1819 44.4133L1794.41 126.195L1788.4 118.624L1781.83 125.242L1744.21 80.2299L1737.26 100.737L1710.71 87.784L1693.82 97.6103L1657.36 55.2881L1657.34 55.2736L1636.32 29.6077L1617.11 39.2447L1592.54 5.2298L1574.02 32.6186L1559.69 11.4781L1542.89 44.9094L1515.27 69.6373L1494.72 50.949L1470.1 109.671L1450.7 111.168L1429.69 137.724L1412.85 123.402L1398.8 132.39L1373.56 101.246L1334.59 165.938L1310.72 164.454L1302.96 174.578L1291.37 177.46L1278.33 216.871L1254.29 243.005L1245.73 239.318L1234.12 252.31H1219.33L1177.09 168.101H1154.93L1116.18 127.72L1102.94 112.201L1091.65 115.918L1079.12 98.9415L1070.98 101.744L1058.52 95.4706L1044.06 122.69L1032.57 118.15L1023.39 128.422L1013.82 125.566L993.127 170.341L988.349 158.755L979.743 160.819L963.88 150.878L954.201 163.877L943.232 160.988L937.645 173.494L926.673 144.329L922.593 148.895H907.956L896.937 158.326L882.049 163.397L865.92 194.005L849.265 166.821L842.978 168.228L832.611 159.356L824.483 174.749H813.263L803.769 192.73L791.604 169.284L771.165 193.635L750.922 155.877L742.396 158.813L712.362 108.393L708.901 111.62L701.278 106.643L687.264 129.048L678.874 121.223L670.535 126.667L662.283 110.327L647.794 129.491L623.679 83.995L594.818 51.6951L582.078 73.7954L568.254 70.1115L564.53 77.0581L554.804 79.2349L527.695 165.814L505.297 167.289L500.313 185.617L491.75 177.776L455.63 182.186L443.709 175.165L434.17 185.841L419.535 137.446L409.836 145.588L385.989 128.997L355.626 200.653L340.297 189.93L326.049 300.102L310.759 323.166L296.929 357.217L278.027 344.815L267.857 385.364L245.129 403.647L232.386 386.383L220.868 391.69L203.401 350.336L194.473 348.195L186.779 340.246L155.867 379.354L140.957 341.627L133.236 356.916L123.522 352.568L96.0193 431.828L81.1666 373.252L69.5989 371.094L57.2904 352.244L39.6809 356.623L27.7328 344.659L18.1911 356.762L0 349.714L0.998366 347.129L1.08043 346.916L17.2102 353.165L27.469 340.153L40.6016 353.303L58.6329 348.819L71.4051 368.38L83.598 370.654L96.466 421.402L121.764 348.495L131.852 353.011L141.291 334.32L156.741 373.415L186.551 335.701L196.017 345.481L205.57 347.772L222.423 387.672L233.346 382.638L245.684 399.353L265.197 383.656L276.147 339.996L295.526 352.71L308.097 321.757L323.168 299.024L337.961 184.637L354.312 196.075L384.671 124.428L409.665 141.816L421.087 132.23L435.492 179.863L443.113 171.333L456.274 179.085L492.755 174.631L498.713 180.087L502.969 164.436L525.452 162.956L552.464 76.6848L562.539 74.4296L566.735 66.6026L580.632 70.3055L594.292 46.6079L626.153 82.2661L648.239 123.933L662.791 104.686L671.699 122.326L679.201 117.429L686.651 124.377L700.358 102.462L708.575 107.826L713.034 103.666L743.722 155.184L752.356 152.21L771.714 188.319L792.196 163.918L803.792 186.269L811.459 171.749H822.679L831.712 154.641L843.785 164.974L850.699 163.426L865.724 187.95L879.956 160.941L895.429 155.671L906.85 145.895H921.254L927.734 138.643L937.883 165.618L941.536 157.44L953.008 160.461L963.129 146.868L980.267 157.609L990.141 155.241L993.283 162.861L1012.19 121.95L1022.42 125.003L1031.73 114.592L1042.67 118.916L1057.25 91.4735L1071.2 98.4963L1080.22 95.3894L1092.77 112.391L1103.91 108.723L1118.4 125.705L1156.21 165.101H1178.93L1221.17 249.31H1232.78L1244.93 235.71L1253.53 239.41L1275.69 215.313L1289.05 174.947L1301.22 171.92L1309.31 161.361L1332.96 162.831L1373.19 96.0395L1399.44 128.421L1413.1 119.681L1429.27 133.429L1449.17 108.278L1468.05 106.82L1493.6 45.8767L1515.29 65.5995L1540.47 43.0522L1559.31 5.57058L1574.02 27.2732L1592.46 0Z" fill="url(#paint0_linear_2_310)"/>
<path fill-rule="evenodd" clip-rule="evenodd" d="M1574.02 27.2732L1592.46 0L1618.05 35.4207L1637.12 25.8521L1659.64 53.3422L1659.66 53.3708L1694.47 93.7659L1710.58 84.3866L1735.51 96.549L1743.08 74.2125L1782.02 120.796L1788.65 114.118L1793.2 119.843L1816.13 43.5483L1818.02 44.1189V683H0.998366V347.129L1.08043 346.916L17.2102 353.165L27.469 340.153L40.6016 353.303L58.6329 348.819L71.4051 368.38L83.598 370.654L96.466 421.402L121.764 348.495L131.852 353.011L141.291 334.32L156.741 373.415L186.551 335.701L196.017 345.481L205.57 347.772L222.423 387.672L233.346 382.638L245.684 399.353L265.197 383.656L276.147 339.996L295.526 352.71L308.097 321.757L323.168 299.024L337.961 184.637L354.312 196.075L384.671 124.428L409.665 141.816L421.087 132.23L435.492 179.863L443.113 171.333L456.274 179.085L492.755 174.631L498.713 180.087L502.969 164.436L525.452 162.956L552.464 76.6848L562.539 74.4296L566.735 66.6026L580.632 70.3055L594.292 46.6079L626.153 82.2661L648.239 123.933L662.791 104.686L671.699 122.326L679.201 117.429L686.651 124.377L700.358 102.462L708.575 107.826L713.034 103.666L743.722 155.184L752.356 152.21L771.714 188.319L792.196 163.918L803.792 186.269L811.459 171.749H822.679L831.712 154.641L843.785 164.974L850.699 163.426L865.724 187.95L879.956 160.941L895.429 155.671L906.85 145.895H921.254L927.734 138.643L937.883 165.618L941.536 157.44L953.008 160.461L963.129 146.868L980.267 157.609L990.141 155.241L993.283 162.861L1012.19 121.95L1022.42 125.003L1031.73 114.592L1042.67 118.916L1057.25 91.4735L1071.2 98.4963L1080.22 95.3894L1092.77 112.391L1103.91 108.723L1118.4 125.705L1156.21 165.101H1178.93L1221.17 249.31H1232.78L1244.93 235.71L1253.53 239.41L1275.69 215.313L1289.05 174.947L1301.22 171.92L1309.31 161.361L1332.96 162.831L1373.19 96.0395L1399.44 128.421L1413.1 119.681L1429.27 133.429L1449.17 108.278L1468.05 106.82L1493.6 45.8767L1515.29 65.5995L1540.47 43.0522L1559.31 5.57058L1574.02 27.2732Z" fill="url(#paint1_linear_2_310)"/>
<defs>
<linearGradient id="paint0_linear_2_310" x1="909.511" y1="1.6399e-10" x2="910" y2="655" gradientUnits="userSpaceOnUse">
<stop stop-color="#8D305F" stop-opacity="0.67"/>
<stop offset="0.70487" stop-color="#8D305F" stop-opacity="0"/>
</linearGradient>
<linearGradient id="paint1_linear_2_310" x1="909.511" y1="1.6399e-10" x2="910" y2="655" gradientUnits="userSpaceOnUse">
<stop stop-color="#8D305F" stop-opacity="0.67"/>
<stop offset="0.70487" stop-color="#8D305F" stop-opacity="0"/>
</linearGradient>
</defs>
</svg>